<svg xmlns="http://www.w3.org/2000/svg" xmlns:xlink="http://www.w3.org/1999/xlink" preserveAspectRatio="xMidYMid meet" version="1.0" viewBox="0.0 0.0 3550.2 3313.3" zoomAndPan="magnify" style="fill: rgb(0, 0, 0);" original_string_length="2847"><defs><clipPath id="__id151_s81xrx7ye"><path d="M 0 265 L 3550.238281 265 L 3550.238281 3313.351562 L 0 3313.351562 Z M 0 265"/></clipPath></defs><g><g id="__id152_s81xrx7ye"><path d="M 1039.457031 386.496094 L 2489.425781 386.496094 C 2502.8125 386.496094 2513.679688 375.652344 2513.679688 362.261719 L 2513.679688 289.519531 C 2513.679688 276.132812 2502.8125 265.265625 2489.425781 265.265625 L 1039.457031 265.265625 C 1026.066406 265.265625 1015.21875 276.132812 1015.21875 289.519531 L 1015.21875 362.261719 C 1015.21875 375.652344 1026.066406 386.496094 1039.457031 386.496094" style="fill: rgb(17, 160, 225);"/></g><g clip-path="url(#__id151_s81xrx7ye)" id="__id153_s81xrx7ye"><path d="M 3172.730469 3192.109375 L 377.523438 3192.109375 C 235.976562 3192.109375 121.234375 3077.371094 121.234375 2935.820312 L 121.234375 1229.796875 L 3428.996094 1229.796875 L 3428.996094 2935.820312 C 3428.996094 3077.371094 3314.257812 3192.109375 3172.730469 3192.109375 Z M 3172.730469 265.25 L 2901.628906 265.25 C 2888.234375 265.25 2877.386719 276.117188 2877.386719 289.511719 L 2877.386719 362.238281 C 2877.386719 375.632812 2888.234375 386.5 2901.628906 386.5 L 3172.730469 386.5 C 3314.082031 386.5 3428.996094 501.414062 3428.996094 643.03125 L 3428.996094 1108.5625 L 121.234375 1108.5625 L 121.234375 643.03125 C 121.234375 501.414062 236.164062 386.5 377.523438 386.5 L 627.265625 386.5 C 640.65625 386.5 651.511719 375.632812 651.511719 362.238281 L 651.511719 289.511719 C 651.511719 276.117188 640.65625 265.25 627.265625 265.25 L 377.523438 265.25 C 169.484375 265.25 0 434.742188 0 643.03125 L 0 2935.820312 C 0 3143.460938 169.882812 3313.351562 377.523438 3313.351562 L 3172.730469 3313.351562 C 3380.363281 3313.351562 3550.25 3143.460938 3550.25 2935.820312 L 3550.25 643.03125 C 3550.25 434.742188 3380.753906 265.25 3172.730469 265.25" style="fill: rgb(17, 160, 225);"/></g><g id="__id154_s81xrx7ye"><path d="M 833.363281 681.59375 C 893.5 681.59375 942.472656 632.847656 942.472656 572.480469 L 942.472656 139.1875 C 942.472656 78.820312 893.5 30.074219 833.363281 30.074219 C 772.988281 30.074219 724.253906 78.820312 724.253906 139.1875 L 724.253906 572.480469 C 724.253906 632.847656 772.988281 681.59375 833.363281 681.59375" style="fill: rgb(17, 160, 225);"/></g><g id="__id155_s81xrx7ye"><path d="M 2695.523438 651.753906 C 2755.671875 651.753906 2804.636719 602.765625 2804.636719 542.636719 L 2804.636719 109.101562 C 2804.636719 48.976562 2755.671875 0.0078125 2695.523438 0.0078125 C 2635.152344 0.0078125 2586.429688 48.976562 2586.429688 109.101562 L 2586.429688 542.636719 C 2586.429688 602.765625 2635.152344 651.753906 2695.523438 651.753906" style="fill: rgb(17, 160, 225);"/></g></g></svg>