<svg preserveAspectRatio="xMidYMid meet" version="1.0" viewBox="86.0 16.0 339.9 480.0" xmlns="http://www.w3.org/2000/svg" xmlns:xlink="http://www.w3.org/1999/xlink" zoomAndPan="magnify" style="fill: rgb(17, 160, 225);" original_string_length="1481"><g id="__id137_s81xrx7ye"><path d="M255.9989,496c-3.33867,0-6.67955-1.2265-9.29137-3.68721-1.6379-1.5425-40.55488-38.41458-79.99467-94.36574-23.26482-33.00289-41.82991-65.79511-55.18129-97.46562-16.92388-40.14513-25.50494-78.67166-25.50494-114.50862,0-93.72326,76.25011-169.97282,169.97337-169.97282s169.97337,76.24955,169.97337,169.97282c0,62.2932-27.13071,132.86525-80.6388,209.75452-39.38243,56.59308-78.2211,94.80692-79.8557,96.40622-2.63057,2.57487-6.05417,3.86644-9.47998,3.86644Zm.0011-452.89356c-78.777,0-142.86693,64.08938-142.86693,142.86637,0,73.33166,41.01813,147.01848,75.4273,195.92115,26.58915,37.78755,53.47059,67.03264,67.26536,81.23385,33.10105-35.24687,143.04119-161.07796,143.04119-277.155,0-78.777-64.08993-142.86637-142.86693-142.86637Zm0,201.18339c-38.5883,0-69.98196-31.39422-69.98196-69.98251s31.39366-69.98196,69.98196-69.98196,69.98196,31.39366,69.98196,69.98196-31.39366,69.98251-69.98196,69.98251Zm0-112.85803c-23.64203,0-42.87552,19.23404-42.87552,42.87552s19.23349,42.87607,42.87552,42.87607,42.87552-19.23404,42.87552-42.87607-19.23349-42.87552-42.87552-42.87552Z" style="fill: inherit;"/></g></svg>