<svg xmlns="http://www.w3.org/2000/svg" xmlns:xlink="http://www.w3.org/1999/xlink" preserveAspectRatio="xMidYMid meet" version="1.0" viewBox="-0.4 -0.0 140.3 128.0" zoomAndPan="magnify" style="fill: rgb(17, 160, 225);" original_string_length="694"><g id="__id167_s81xrx7ye"><path d="M71.03,104.01l-1.78-50.37l49.81-31.52L71.03,104.01z M20.57,10.56l95.54,1.01l-52.14,33L20.57,10.56z M138.89,4 c-0.95-1.61-2.69-2.62-4.57-2.64l-1.98-0.02l-0.02-0.03l-0.05,0.03L5.3,0c-2.26-0.02-4.26,1.36-5,3.45 c-0.74,2.08-0.05,4.42,1.72,5.8l56.66,44.39l2.42,68.87c0.08,2.32,1.72,4.32,4.02,4.9c0,0,0.01,0,0.01,0.01 c2.29,0.57,4.67-0.41,5.85-2.41L138.9,9.19C139.84,7.59,139.84,5.61,138.89,4" style="fill: inherit;"/></g></svg>