<svg data-name="Layer 5" preserveAspectRatio="xMidYMid meet" version="1.0" viewBox="-0.0 0.0 500.0 500.0" xmlns="http://www.w3.org/2000/svg" xmlns:xlink="http://www.w3.org/1999/xlink" zoomAndPan="magnify" style="fill: rgb(17, 160, 225);" original_string_length="5440"><g id="__id158_s81xrx7ye"><path d="M165.9212,296.887c6.3482,13.77,3.9,29.2895-6.897,43.7016-1.8354,2.4483-3.85,4.8758-6.159,7.4178-2.7018,2.9762-39.3067,38.7216-43.4724,42.7883a5.3333,5.3333,0,0,1-7.2737.1667c-4.5684-4.0667-8.9581-8.3868-13.2036-12.5646-3.4154-3.3651-6.9472-6.8414-10.5-10.1093-8.0968-7.4491-16.468-15.1552-23.74-24.2192-12.8858-16.0651-16.0877-32.38-9.2637-47.1813,6.1695-13.3841,18.7687-22.0592,32.0955-22.1009h.1077c11.0661,0,20.9843,5.65,28.1608,15.7943,7.4839-10.1753,17.6557-15.7769,28.7825-15.5963C147.7654,275.1786,159.783,283.5723,165.9212,296.887Zm221.84,6.3934a5.3323,5.3323,0,0,0,4.7682,3.07h.0607a5.334,5.334,0,0,0,4.7751-2.9588,44.1077,44.1077,0,0,1,4.1291-6.765,5.3349,5.3349,0,0,0-8.54-6.3969l-.2553.3438c-.0851-.118-.1719-.24-.2587-.3611a5.3344,5.3344,0,1,0-8.6508,6.2441A42.6584,42.6584,0,0,1,387.7612,303.28Zm-11.7745-26.32a31.71,31.71,0,0,0-21.59-.5174,5.335,5.335,0,0,0,3.3617,10.1266,20.887,20.887,0,0,1,14.3321.323,5.3346,5.3346,0,1,0,3.8965-9.9322Zm-3.4241,83.4789c-3.1343-2.8859-6.2737-5.7822-9.3436-8.7445a5.3345,5.3345,0,0,0-7.411,7.6749c3.1326,3.0248,6.3345,5.9767,9.5311,8.9181q1.9562,1.8024,3.8757,3.643a5.3339,5.3339,0,1,0,7.3658-7.7166C375.2522,362.9464,373.9152,361.6823,372.5626,360.439ZM334.4191,314.14a5.3336,5.3336,0,0,0,5.2891-4.7022,26.9187,26.9187,0,0,1,2.3163-8.0846,30.7018,30.7018,0,0,1,3.62-5.9836,5.3349,5.3349,0,0,0-8.4285-6.5427,41.5171,41.5171,0,0,0-4.881,8.06,37.5063,37.5063,0,0,0-3.2193,11.2865,5.3318,5.3318,0,0,0,4.6657,5.9281A4.9369,4.9369,0,0,0,334.4191,314.14ZM349.92,337.3936a53.7154,53.7154,0,0,1-7.779-12.7278,5.3334,5.3334,0,1,0-9.8454,4.1048,64.1824,64.1824,0,0,0,9.3019,15.2977c.4133.514.8317,1.028,1.252,1.5315a5.3335,5.3335,0,1,0,8.1958-6.8275Zm45.2939,39.562-2.747,2.6845q-1.3569-1.2711-2.6966-2.556a5.3348,5.3348,0,1,0-7.3831,7.7026c2.1843,2.0942,4.3948,4.1639,6.6573,6.1747a5.3312,5.3312,0,0,0,7.272-.1667l6.3569-6.2129a5.3339,5.3339,0,1,0-7.4595-7.6262Zm26.1188-25.6014c-3.9659,3.9034-8.576,8.4285-13.0542,12.818a5.3339,5.3339,0,1,0,7.4665,7.6194c4.4851-4.3966,9.1022-8.9286,13.0716-12.839a5.3326,5.3326,0,1,0-7.4839-7.5984Zm34.77-42.9653a37.5232,37.5232,0,0,0-3.2557-11.5019,41.4879,41.4879,0,0,0-4.7091-7.8416,5.3345,5.3345,0,0,0-8.47,6.4872,30.7593,30.7593,0,0,1,3.4919,5.8238,26.913,26.913,0,0,1,2.3441,8.241,5.3321,5.3321,0,0,0,5.2926,4.73,5.1959,5.1959,0,0,0,.6112-.0347A5.333,5.333,0,0,0,456.1022,308.3889Zm-44.6774-20.91a5.3246,5.3246,0,0,0,1.943-.3681,20.962,20.962,0,0,1,14.3027-.3786,5.3356,5.3356,0,0,0,3.3443-10.1336,31.64,31.64,0,0,0-21.5365.58,5.3335,5.3335,0,0,0,1.9465,10.3Zm38.574,34.4709a5.33,5.33,0,0,0-7.0116,2.7817,46.99,46.99,0,0,1-5.579,9.46q-1.7034,2.2764-3.5579,4.4243a5.3354,5.3354,0,0,0,8.0951,6.9525q2.0786-2.4222,4.0024-4.98a57.5783,57.5783,0,0,0,6.8327-11.6269A5.3334,5.3334,0,0,0,449.9988,321.95Z" style="fill: rgb(219, 27, 50);"/></g><g id="__id159_s81xrx7ye"><path d="M263.9736,398.6111v95.9848A5.4258,5.4258,0,0,1,258.5925,500H5.3793A5.4243,5.4243,0,0,1,0,494.5959v-219.59c0-48.5663,36.407-89.1156,84.3749-97.7746C57.6205,160.12,40.616,129.3526,40.616,95.62,40.616,42.8954,81.6053,0,131.9868,0s91.3691,42.8954,91.3691,95.62c0,33.7777-17.0132,64.5412-43.8092,81.6428,38.3691,6.9739,70.1486,34.3289,80.725,71.25a5.336,5.336,0,1,1-10.2517,2.9654c-11.0036-38.4107-47.82-65.2353-89.5355-65.2353a5.488,5.488,0,0,1-5.3915-4.4307,5.27,5.27,0,0,1,3.2974-5.9657c32.4776-11.83,54.2971-44.0694,54.2971-80.2264,0-46.8149-36.2021-84.9029-80.7007-84.9029-44.5,0-80.7024,38.088-80.7024,84.9029,0,36.0559,21.74,68.2671,54.0957,80.1531a5.4014,5.4014,0,0,1-1.8459,10.47c-51.2062,0-92.8658,39.82-92.8658,88.7632V489.2827H253.3052V398.6111a5.3343,5.3343,0,1,1,10.6684,0ZM415.59,177.2526C442.376,160.1474,459.384,129.3875,459.384,95.62,459.384,42.8954,418.3947,0,368.0132,0s-91.3708,42.8954-91.3708,95.62c0,33.7428,16.9819,64.4784,43.7311,81.594a104.15,104.15,0,0,0-53.9446,27.348,5.3728,5.3728,0,0,0-.1788,7.574,5.3083,5.3083,0,0,0,7.5411.1779c17.5446-16.8121,40.8869-26.0711,66-26.0711a5.3618,5.3618,0,0,0,1.818-10.3964c-32.4776-11.83-54.2988-44.0694-54.2988-80.2264,0-46.8149,36.2038-84.9029,80.7024-84.9029,44.5,0,80.7024,38.088,80.7024,84.9029,0,36.157-21.8213,68.3962-54.2988,80.2264a5.27,5.27,0,0,0-3.2974,5.9657,5.488,5.488,0,0,0,5.3915,4.4307c51.182,0,92.8207,39.7992,92.8207,88.7178V489.2827H292.8447a5.3587,5.3587,0,0,0,0,10.7173H494.6658A5.3467,5.3467,0,0,0,500,494.6414V274.9608C500,226.4573,463.6694,185.9534,415.59,177.2526ZM244.9306,370.017V357.3482H194.1168c-5.3325,0-9.67-4.8376-9.67-10.783V300.9918c0-5.9489,4.3375-10.7865,9.67-10.7865h50.8138V277.5366a10.7588,10.7588,0,0,1,6.1347-10.0468,8.907,8.907,0,0,1,9.7481,1.7642L310.54,315.4907a11.6567,11.6567,0,0,1,.0017,16.5722l-49.73,46.2436a9.1124,9.1124,0,0,1-6.2075,2.5039,8.8585,8.8585,0,0,1-3.5423-.7467A10.7584,10.7584,0,0,1,244.9306,370.017Zm5.3342-23.3372a5.3345,5.3345,0,0,1,5.3342,5.3342v16.5722l47.6762-44.3336a1.5535,1.5535,0,0,0-.04-.9863L255.599,278.9709V295.54a5.3344,5.3344,0,0,1-5.3342,5.3341H195.1187c-.0018.0382-.0035.0764-.0035.1181v45.5734c0,.0417.0017.08.0035.1146Z" style="fill: inherit;"/></g></svg>