<svg xmlns="http://www.w3.org/2000/svg" xmlns:xlink="http://www.w3.org/1999/xlink" preserveAspectRatio="xMidYMid meet" version="1.0" viewBox="24.0 30.5 53.0 60.1" zoomAndPan="magnify" style="fill: rgb(224, 51, 43);" original_string_length="795"><g id="__id572_s81xrx7ye"><path d="m48.8 40.9c3.3 2.1 5.6 5.6 6 9.6 1.3 0.6 2.8 1 4.4 1 5.8 0 10.5-4.7 10.5-10.5s-4.7-10.5-10.5-10.5c-5.7 0.1-10.4 4.7-10.4 10.4zm-6.9 21.4c5.8 0 10.5-4.7 10.5-10.5s-4.7-10.5-10.5-10.5-10.5 4.7-10.5 10.5 4.7 10.5 10.5 10.5zm4.4 0.7h-8.9c-7.4 0-13.4 6-13.4 13.4v11.1l0.7 0.2c7 2.2 13.2 2.9 18.2 2.9 9.8 0 15.5-2.8 15.9-3l0.7-0.4h0.1v-10.8c0.1-7.4-5.9-13.4-13.3-13.4zm17.3-10.8h-8.8c-0.1 3.5-1.6 6.7-4 9 6.6 2 11.4 8 11.4 15.2v3.3c8.7-0.3 13.7-2.8 14-2.9l0.7-0.4h0.1v-10.8c0-7.4-6-13.4-13.4-13.4z" style="fill: inherit;"/></g></svg>