<svg xmlns="http://www.w3.org/2000/svg" xmlns:xlink="http://www.w3.org/1999/xlink" data-name="Layer 1" preserveAspectRatio="xMidYMid meet" version="1.0" viewBox="24.8 26.2 587.7 869.7" zoomAndPan="magnify" style="fill: rgb(17, 160, 225);" original_string_length="934"><g id="__id169_sk3voqbuzu"><path d="M319,382.29h-.2a175.27,175.27,0,0,1-125-52.3,178.75,178.75,0,0,1-52.05-125.72c-.24-47.91,20.38-95,56.58-129.09,34.06-32.1,78.34-49,121.54-46.3,42.64-2.3,86.4,14.72,120.13,46.75,36,34.16,56.48,81.21,56.25,129.08a178,178,0,0,1-52.19,125.58A175.39,175.39,0,0,1,319,382.29Z" style="fill: inherit;"/></g><g id="__id170_sk3voqbuzu"><path d="M318.09,895.84A511.73,511.73,0,0,1,91,842.42C45.3,819.64,24.78,801.26,26.46,784.6L48.35,567.45c.07-34.31,12.8-66.85,36.81-94.12,23.26-26.4,56.29-46.07,93-55.37A202.77,202.77,0,0,1,228,412H416.24c45.67,2.78,88.05,20.19,119.33,49s48.77,66.71,48.88,106.38l26,215.44c2,16.75-18,35.21-63,58.1a508.44,508.44,0,0,1-228,54.91Z" style="fill: inherit;"/></g></svg>