<svg xmlns="http://www.w3.org/2000/svg" xmlns:xlink="http://www.w3.org/1999/xlink" preserveAspectRatio="xMidYMid meet" version="1.0" viewBox="36.6 15.2 460.2 460.2" zoomAndPan="magnify" style="fill: rgb(224, 51, 43);" original_string_length="5277"><g id="__id330_sfa40g5jvs"><path d="M283.627,393.022L92.086,309.041l9.104-27.311l92.417,40.523c28.539,28.131,61.063,51.108,96.925,68.468L283.627,393.022z M238.344,408.116l-156.42-68.591l5.08-15.241l173.984,76.283L238.344,408.116z M129.885,444.272l-72.306-31.71l5.081-15.241 l89.861,39.406L129.885,444.272z M175.148,429.18L67.74,382.079l9.104-27.312l138.865,60.893L175.148,429.18z M111.351,251.246 l36.39,15.951c6.059,8.927,12.518,17.597,19.351,25.959l-60.821-26.669L111.351,251.246z M121.284,221.445 c3.57,7.361,7.393,14.601,11.445,21.702l-16.298-7.144L121.284,221.445z M52.498,427.805l54.753,24.012l-70.602,23.534 L52.498,427.805z" style="fill: inherit;"/><path d="M399.893,88.032c7.857-19.03-4.858-40.747-4.974-40.941c-0.459-0.777-0.64-1.527-0.472-1.958 c0.157-0.401,0.733-0.785,1.54-1.026c3.194-0.952,7.858,0.908,9.587,3.83c0.144,0.244,14.289,24.582,5.908,44.881 c-4.949,11.987-16.665,20.452-34.821,25.158c-16.256,4.212-26.815,11.959-31.386,23.026c-7.81,18.917,4.843,40.719,4.975,40.942 c0.46,0.776,0.641,1.525,0.472,1.955c-0.157,0.402-0.733,0.786-1.54,1.026c-3.196,0.957-7.859-0.906-9.59-3.833 c-0.144-0.243-14.295-24.558-5.906-44.877c4.949-11.987,16.665-20.452,34.822-25.157 C384.765,106.845,395.324,99.098,399.893,88.032z" style="fill: inherit;"/><path d="M352.039,314.143c-0.171-1.496,0.235-2.92,1.144-4.009c0.915-1.096,2.256-1.755,3.755-1.854 c0.265-0.017,26.715-1.9,41.578-20.409c8.581-10.685,11.578-24.961,8.908-42.431c-3.153-20.643,0.554-37.716,11.02-50.747 c17.606-21.924,47.944-24.18,49.224-24.265c0.136-0.009,0.271-0.013,0.404-0.013c3.268,0,6.252,2.597,6.625,5.856 c0.171,1.495-0.235,2.918-1.144,4.007c-0.915,1.097-2.257,1.757-3.755,1.856c-0.265,0.017-26.713,1.9-41.578,20.409 c-8.58,10.684-11.577,24.959-8.908,42.431c3.153,20.643-0.554,37.716-11.02,50.747c-17.606,21.924-47.944,24.18-49.224,24.265 C355.68,320.217,352.428,317.536,352.039,314.143z" style="fill: inherit;"/><path d="M223.909,181.922c8.854-11.023,12.166-25.623,9.844-43.393c-2.776-21.246,1.413-38.987,12.449-52.729 c18.555-23.103,49.631-26.087,50.941-26.202c0.187-0.017,0.371-0.024,0.555-0.024c3.215,0,5.973,2.463,6.274,5.722 c0.152,1.65-0.345,3.256-1.401,4.522c-1.058,1.268-2.552,2.046-4.203,2.191c-0.27,0.023-27.076,2.574-42.389,21.642 c-8.854,11.023-12.166,25.623-9.844,43.393c2.776,21.246-1.413,38.987-12.449,52.731c-18.555,23.097-49.631,26.085-50.941,26.2 c-3.444,0.309-6.51-2.252-6.829-5.696c-0.152-1.651,0.346-3.259,1.402-4.525c1.058-1.267,2.551-2.045,4.169-2.187 C181.756,203.544,208.501,201.107,223.909,181.922z" style="fill: inherit;"/><path d="M356.557,351.779l-4.993,2.576c-3.927,2.025-5.468,6.851-3.441,10.777c2.025,3.927,6.851,5.468,10.777,3.441l4.992-2.575 c36.475-18.815,83.971-6.197,118.193,31.387c1.578,1.734,3.744,2.614,5.917,2.614c1.923,0,3.851-0.688,5.384-2.085 c3.268-2.975,3.504-8.034,0.529-11.301C454.75,343.601,399.55,329.603,356.557,351.779z" style="fill: inherit;"/><path d="M146.959,167.61l-3.15,6.107c-2.026,3.926-0.484,8.751,3.442,10.776c1.173,0.605,2.426,0.893,3.66,0.893 c2.898,0,5.696-1.581,7.116-4.335l3.151-6.107c26.652-51.675,16.823-114.589-24.46-156.555c-3.1-3.149-8.164-3.19-11.313-0.093 c-3.149,3.099-3.191,8.164-0.093,11.313C161.736,66.636,170.435,122.094,146.959,167.61z" style="fill: inherit;"/><path d="M271.608,335.978c0.203,0.016,0.405,0.022,0.605,0.022c4.146,0,7.654-3.2,7.969-7.403 c1.03-13.773,8.294-28.875,19.929-41.433c11.695-12.623,26.609-21.376,40.917-24.014l20.422-3.765 c4.345-0.801,7.218-4.973,6.417-9.317c-0.8-4.346-4.969-7.224-9.317-6.417l-20.422,3.765 c-17.888,3.297-35.558,13.552-49.754,28.874c-14.257,15.388-22.833,33.541-24.146,51.113 C263.897,331.81,267.202,335.648,271.608,335.978z" style="fill: inherit;"/><path d="M286.552,174.937c-4.227-1.271-8.692,1.124-9.966,5.354l-4.553,15.125c-6.6,21.928-31.653,45.638-52.563,49.746 c-4.336,0.852-7.16,5.057-6.308,9.392c0.749,3.815,4.095,6.46,7.841,6.46c0.512,0,1.03-0.05,1.551-0.152 c26.784-5.262,56.459-33.12,64.8-60.834l4.553-15.125C293.18,180.672,290.783,176.21,286.552,174.937z" style="fill: inherit;"/><path d="M184,56h8v8c0,4.418,3.582,8,8,8s8-3.582,8-8v-8h8c4.418,0,8-3.582,8-8s-3.582-8-8-8h-8v-8c0-4.418-3.582-8-8-8 s-8,3.582-8,8v8h-8c-4.418,0-8,3.582-8,8S179.582,56,184,56z" style="fill: inherit;"/><path d="M312,200c-4.418,0-8,3.582-8,8v8h-8c-4.418,0-8,3.582-8,8s3.582,8,8,8h8v8c0,4.418,3.582,8,8,8s8-3.582,8-8v-8h8 c4.418,0,8-3.582,8-8s-3.582-8-8-8h-8v-8C320,203.582,316.418,200,312,200z" style="fill: inherit;"/><path d="M328,48h8v8c0,4.418,3.582,8,8,8s8-3.582,8-8v-8h8c4.418,0,8-3.582,8-8s-3.582-8-8-8h-8v-8c0-4.418-3.582-8-8-8 s-8,3.582-8,8v8h-8c-4.418,0-8,3.582-8,8S323.582,48,328,48z" style="fill: inherit;"/><path d="M456,128h8v8c0,4.418,3.582,8,8,8s8-3.582,8-8v-8h8c4.418,0,8-3.582,8-8s-3.582-8-8-8h-8v-8c0-4.418-3.582-8-8-8 s-8,3.582-8,8v8h-8c-4.418,0-8,3.582-8,8S451.582,128,456,128z" style="fill: inherit;"/><path d="M185.14,267.884c-2.272,3.789-1.044,8.703,2.744,10.977c11.876,7.125,25.24,10.635,38.57,10.635 c16.728,0,33.398-5.532,46.97-16.389l3.574-2.859c3.449-2.76,4.009-7.795,1.249-11.245c-2.76-3.449-7.793-4.007-11.245-1.249 l-3.573,2.859c-19.19,15.352-46.241,17.171-67.312,4.527C192.324,262.868,187.412,264.096,185.14,267.884z" style="fill: inherit;"/><path d="M320,312c-4.418,0-8,3.582-8,8c0,13.233-10.767,24-24,24c-4.418,0-8,3.582-8,8s3.582,8,8,8c22.056,0,40-17.944,40-40 C328,315.582,324.418,312,320,312z" style="fill: inherit;"/></g></svg>